<svg xmlns="http://www.w3.org/2000/svg" viewBox="0 0 330 200"><rect width="330" height="200" rx="14" fill="#f1f3f7"/><rect x="28" y="44" width="58" height="112" rx="10" fill="#2b3a55" stroke="#2b3a55" stroke-width="2.2"/><rect x="33" y="53" width="48" height="94" rx="4" fill="#fff"/><g transform="translate(33 53)"><rect x="8" y="6" width="18" height="22" rx="5" fill="#e9ecf1"/><text x="24" y="90" text-anchor="middle" font-size="7.5" font-weight="800" fill="#9aa6b8" font-family="Pretendard,'Noto Sans KR','Apple SD Gothic Neo',sans-serif">모델명</text></g><rect x="36" y="104" width="42" height="13" rx="2" fill="#ffd9ad"/><text x="57" y="114" text-anchor="middle" font-size="8" font-weight="800" fill="#2b3a55" font-family="Pretendard,'Noto Sans KR','Apple SD Gothic Neo',sans-serif">SM-A123</text><circle cx="28" cy="44" r="11" fill="#ef7300" stroke="#fff" stroke-width="2.5"/><text x="28" y="48" text-anchor="middle" font-size="11.5" font-weight="900" fill="#fff" font-family="Pretendard,'Noto Sans KR','Apple SD Gothic Neo',sans-serif">1</text><rect x="136" y="44" width="58" height="112" rx="10" fill="#2b3a55" stroke="#2b3a55" stroke-width="2.2"/><rect x="141" y="53" width="48" height="94" rx="4" fill="#fff"/><g transform="translate(141 53)"><circle cx="24" cy="36" r="13" fill="#ffe9e9"/><text x="24" y="41" text-anchor="middle" font-size="15" font-weight="900" fill="#e5484d" font-family="Pretendard,'Noto Sans KR','Apple SD Gothic Neo',sans-serif">!</text><path d="M8 62 h32" fill="none" stroke="#9aa6b8" stroke-width="2" stroke-linecap="round" stroke-linejoin="round"/><path d="M8 71 h24" fill="none" stroke="#9aa6b8" stroke-width="2" stroke-linecap="round" stroke-linejoin="round"/><circle cx="38" cy="86" r="4" fill="#e5484d"/></g><circle cx="136" cy="44" r="11" fill="#ef7300" stroke="#fff" stroke-width="2.5"/><text x="136" y="48" text-anchor="middle" font-size="11.5" font-weight="900" fill="#fff" font-family="Pretendard,'Noto Sans KR','Apple SD Gothic Neo',sans-serif">2</text><path d="M128 48 V36 H140" fill="none" stroke="#ef7300" stroke-width="3" stroke-linecap="round" stroke-linejoin="round"/><path d="M190 36 H202 V48" fill="none" stroke="#ef7300" stroke-width="3" stroke-linecap="round" stroke-linejoin="round"/><path d="M128 152 V164 H140" fill="none" stroke="#ef7300" stroke-width="3" stroke-linecap="round" stroke-linejoin="round"/><path d="M190 164 H202 V152" fill="none" stroke="#ef7300" stroke-width="3" stroke-linecap="round" stroke-linejoin="round"/><path d="M248 48 H310 V148 L306 152 L298 148 L290 152 L282 148 L274 152 L266 148 L258 152 L248 148 Z" fill="#fff" stroke="#2b3a55" stroke-width="2.2" stroke-linejoin="round"/><text x="279.0" y="64" text-anchor="middle" font-size="9.5" font-weight="800" fill="#2b3a55" font-family="Pretendard,'Noto Sans KR','Apple SD Gothic Neo',sans-serif">수리 내역</text><path d="M256 80 h40" fill="none" stroke="#9aa6b8" stroke-width="2" stroke-linecap="round" stroke-linejoin="round"/><path d="M256 89 h32" fill="none" stroke="#9aa6b8" stroke-width="2" stroke-linecap="round" stroke-linejoin="round"/><path d="M256 98 h44" fill="none" stroke="#9aa6b8" stroke-width="2" stroke-linecap="round" stroke-linejoin="round"/><path d="M256 107 h28" fill="none" stroke="#9aa6b8" stroke-width="2" stroke-linecap="round" stroke-linejoin="round"/><path d="M266 128 l12 -12 m-2 -4 a6 6 0 1 0 8 8" fill="none" stroke="#ef7300" stroke-width="2.4" stroke-linecap="round" stroke-linejoin="round"/><circle cx="248" cy="48" r="11" fill="#ef7300" stroke="#fff" stroke-width="2.5"/><text x="248" y="52" text-anchor="middle" font-size="11.5" font-weight="900" fill="#fff" font-family="Pretendard,'Noto Sans KR','Apple SD Gothic Neo',sans-serif">3</text></svg>
