<svg viewBox="0 0 300 220" xmlns="http://www.w3.org/2000/svg"><rect width="300" height="220" rx="14" fill="#eef6f0"/><g><rect x="111" y="131" width="14" height="12" fill="#fff" stroke="#2b3a55" stroke-width="1.8"/><path d="M74 222 Q72 148 102 142 L134 142 Q164 148 162 222 Z" fill="#8dbf9e"/><path d="M109 142 L118 152 L127 142" fill="none" stroke="#00000033" stroke-width="2" stroke-linecap="round" stroke-linejoin="round"/><g transform="translate(186 112) rotate(7)"><path d="M-32 -56 L32 -56 L32 50 L24 56 L16 50 L8 56 L0 50 L-8 56 L-16 50 L-24 56 L-32 50 Z" fill="#fff" stroke="#2b3a55" stroke-width="2"/><text x="0" y="-37" text-anchor="middle" font-size="11" font-weight="800" fill="#2b3a55" font-family="sans-serif">영수증</text><path d="M-22 -24 L10 -24" fill="none" stroke="#9aa6b8" stroke-width="2" stroke-linecap="round" stroke-linejoin="round"/><text x="22" y="-20" text-anchor="end" font-size="8" fill="#ef7300" font-weight="800" font-family="sans-serif">날짜</text><path d="M-22 -10 L4 -10" fill="none" stroke="#9aa6b8" stroke-width="2" stroke-linecap="round" stroke-linejoin="round"/><text x="22" y="-6" text-anchor="end" font-size="8" fill="#ef7300" font-weight="800" font-family="sans-serif">상품</text><path d="M-22 4 L8 4" fill="none" stroke="#9aa6b8" stroke-width="2" stroke-linecap="round" stroke-linejoin="round"/><path d="M-22 30 L22 30" fill="none" stroke="#2b3a55" stroke-width="1.5" stroke-linecap="round" stroke-linejoin="round"/><text x="0" y="24" text-anchor="middle" font-size="12" font-weight="900" fill="#2b3a55" font-family="sans-serif">₩ 59,000</text></g><path d="M150 152 L160 184 L164 174" fill="none" stroke="#8dbf9e" stroke-width="17" stroke-linecap="round" stroke-linejoin="round"/><circle cx="164" cy="174" r="7.5" fill="#fff" stroke="#2b3a55" stroke-width="1.8"/><ellipse cx="118" cy="90" rx="21" ry="23" fill="#fff" stroke="#2b3a55" stroke-width="2"/><path d="M97 86 Q96 64 118 65 Q140 64 139 86 Q126 74 97 86 Z" fill="#2b3a55"/><circle cx="110" cy="91" r="2.4" fill="#2b3a55"/><circle cx="126" cy="91" r="2.4" fill="#2b3a55"/><path d="M113 103 L123 102" fill="none" stroke="#2b3a55" stroke-width="2" stroke-linecap="round" stroke-linejoin="round"/><path d="M106 84 L114 83" fill="none" stroke="#2b3a55" stroke-width="2" stroke-linecap="round" stroke-linejoin="round"/><path d="M130 84 L122 83" fill="none" stroke="#2b3a55" stroke-width="2" stroke-linecap="round" stroke-linejoin="round"/><path transform="translate(46 46) scale(1)" d="M0 -9 Q1 -1 9 0 Q1 1 0 9 Q-1 1 -9 0 Q-1 -1 0 -9Z" fill="#ef7300"/><path transform="translate(258 40) scale(0.7)" d="M0 -9 Q1 -1 9 0 Q1 1 0 9 Q-1 1 -9 0 Q-1 -1 0 -9Z" fill="#ffc38f"/></g></svg>
